# xmcd CD database file
#
# Track frame offsets:
#	183
#	48458
#	92823
#	123315
#	171565
#	220873
#
# Disc length: 3504 seconds
#
# Revision: 17
# Processed by: cddbd v1.5.2PL0 Copyright (c) Steve Scherf et al.
# Submitted via: CDex 1.50
#
DISCID=540dae06
DTITLE=Anne-Sophie Mutter - Herbert von Karajan - Berliner Philharmoniker - Die groﬂen Violinkonzerte CD01
DYEAR=1978
DGENRE=Classical
TTITLE0=Wolfgang Amadeus Mozart - Nr. 3 G-dur KV 216 - 1. Allegro
TTITLE1=Wolfgang Amadeus Mozart - Nr. 3 G-dur KV 216 - 2. Adagio
TTITLE2=Wolfgang Amadeus Mozart - Nr. 3 G-dur KV 216 - 3. Rondo. Allegro
TTITLE3=Wolfgang Amadeus Mozart - Nr. 5 A-dur KV 219 - 1. Allegro aperto
TTITLE4=Wolfgang Amadeus Mozart - Nr. 5 A-dur KV 219 - 2. Adagio
TTITLE5=Wolfgang Amadeus Mozart - Nr. 5 A-dur KV 219 - 3. Rondo. Tempo di minuetto
EXTD=Anne-Sophie Mutter: Violin\nHerbert von Karajan and  The Berlin Symphony Orchestra\n\nViolin Conc YEAR: 1978
EXTT0=
EXTT1=
EXTT2=
EXTT3=
EXTT4=
EXTT5=
PLAYORDER=
